<?xml version="1.0" encoding="UTF-8"?>
<!DOCTYPE svg PUBLIC "-//W3C//DTD SVG 1.1//EN" "http://www.w3.org/Graphics/SVG/1.1/DTD/svg11.dtd">
<svg xmlns="http://www.w3.org/2000/svg" version="1.1" width="152px" height="151px" style="shape-rendering:geometricPrecision; text-rendering:geometricPrecision; image-rendering:optimizeQuality; fill-rule:evenodd; clip-rule:evenodd" xmlns:xlink="http://www.w3.org/1999/xlink">
<g><path style="opacity:1" fill="#02141b" d="M 107.5,16.5 C 120.223,22.8896 129.556,32.5563 135.5,45.5C 139.562,55.4155 141.895,65.7488 142.5,76.5C 141.943,85.7233 140.276,94.7233 137.5,103.5C 130.93,117.579 120.93,128.745 107.5,137C 103.658,139.002 99.6582,140.502 95.5,141.5C 84.5801,143.207 73.5801,143.874 62.5,143.5C 52.0035,142.008 42.6702,138.008 34.5,131.5C 6.39296,106.157 0.392964,76.1565 16.5,41.5C 16.427,39.9731 17.0937,38.9731 18.5,38.5C 42.8883,8.99507 72.3883,1.99507 107,17.5C 107.399,17.2716 107.565,16.9382 107.5,16.5 Z"/></g>
<g><path style="opacity:0.482" fill="#393d42" d="M 107.5,16.5 C 107.565,16.9382 107.399,17.2716 107,17.5C 72.3883,1.99507 42.8883,8.99507 18.5,38.5C 39.0909,9.35975 66.4243,0.526417 100.5,12C 103.239,13.0259 105.572,14.5259 107.5,16.5 Z"/></g>
<g><path style="opacity:1" fill="#061f11" d="M 72.5,46.5 C 69.8261,48.3193 66.9928,49.986 64,51.5C 62.1714,48.7964 59.6714,47.963 56.5,49C 55.4829,50.0495 55.3162,51.2161 56,52.5C 58.3013,53.7599 60.4679,55.0933 62.5,56.5C 61.0695,56.5792 59.7362,56.2458 58.5,55.5C 57.913,56.2334 57.913,57.2334 58.5,58.5C 58.1667,58.5 57.8333,58.5 57.5,58.5C 55.8361,57.2568 54.6695,55.5902 54,53.5C 49.0792,51.923 47.2459,53.5897 48.5,58.5C 44.9341,53.1577 46.6008,50.3244 53.5,50C 55.5407,46.6376 58.5407,45.6376 62.5,47C 63.263,47.9435 64.263,48.4435 65.5,48.5C 67.5771,47.0629 69.9105,46.3962 72.5,46.5 Z"/></g>
<g><path style="opacity:1" fill="#48825b" d="M 80.5,49.5 C 79.596,50.209 79.2627,51.209 79.5,52.5C 75.3357,49.7641 71.669,50.4308 68.5,54.5C 69.6888,55.4287 71.0222,55.762 72.5,55.5C 75.4935,55.1457 76.4935,56.1457 75.5,58.5C 73.742,58.8769 72.0754,59.5435 70.5,60.5C 68.0417,58.6982 65.3751,57.3649 62.5,56.5C 60.4679,55.0933 58.3013,53.7599 56,52.5C 55.3162,51.2161 55.4829,50.0495 56.5,49C 59.6714,47.963 62.1714,48.7964 64,51.5C 66.9928,49.986 69.8261,48.3193 72.5,46.5C 73.1499,46.1961 73.8165,45.8627 74.5,45.5C 76.5654,46.8567 78.5654,48.19 80.5,49.5 Z"/></g>
<g><path style="opacity:1" fill="#4c7f50" d="M 57.5,58.5 C 57.5,59.8333 56.8333,60.5 55.5,60.5C 53.1055,59.9853 50.7722,59.3186 48.5,58.5C 47.2459,53.5897 49.0792,51.923 54,53.5C 54.6695,55.5902 55.8361,57.2568 57.5,58.5 Z"/></g>
<g><path style="opacity:0.21" fill="#252b31" d="M 135.5,45.5 C 142.907,58.8342 145.407,73.1675 143,88.5C 142.22,93.9981 140.387,98.9981 137.5,103.5C 140.276,94.7233 141.943,85.7233 142.5,76.5C 141.895,65.7488 139.562,55.4155 135.5,45.5 Z"/></g>
<g><path style="opacity:1" fill="#042422" d="M 79.5,52.5 C 80.9997,54.1786 82.833,55.5119 85,56.5C 85.6667,58.1667 85.6667,59.8333 85,61.5C 81.4186,63.3735 77.9186,65.3735 74.5,67.5C 73.5832,66.8728 72.5832,66.5394 71.5,66.5C 67.3699,63.5968 63.0366,60.9301 58.5,58.5C 57.913,57.2334 57.913,56.2334 58.5,55.5C 59.7362,56.2458 61.0695,56.5792 62.5,56.5C 65.3751,57.3649 68.0417,58.6982 70.5,60.5C 72.0754,59.5435 73.742,58.8769 75.5,58.5C 76.7847,60.0622 78.2847,61.3955 80,62.5C 82.518,61.4686 83.3514,59.8019 82.5,57.5C 79.8333,56.5 77.1667,55.5 74.5,54.5C 73.5836,54.5427 72.9169,54.8761 72.5,55.5C 71.0222,55.762 69.6888,55.4287 68.5,54.5C 71.669,50.4308 75.3357,49.7641 79.5,52.5 Z"/></g>
<g><path style="opacity:1" fill="#37736e" d="M 72.5,55.5 C 72.9169,54.8761 73.5836,54.5427 74.5,54.5C 77.1667,55.5 79.8333,56.5 82.5,57.5C 83.3514,59.8019 82.518,61.4686 80,62.5C 78.2847,61.3955 76.7847,60.0622 75.5,58.5C 76.4935,56.1457 75.4935,55.1457 72.5,55.5 Z"/></g>
<g><path style="opacity:1" fill="#397e6b" d="M 57.5,58.5 C 57.8333,58.5 58.1667,58.5 58.5,58.5C 63.0366,60.9301 67.3699,63.5968 71.5,66.5C 69.5188,67.1054 69.1854,68.1054 70.5,69.5C 68.3718,68.0427 66.0384,67.0427 63.5,66.5C 63.3433,67.8734 63.51,69.2068 64,70.5C 65.5185,71.1634 66.6851,72.1634 67.5,73.5C 66.1667,73.8333 64.8333,74.1667 63.5,74.5C 62.2921,73.7659 60.9587,73.4326 59.5,73.5C 59.8226,69.774 59.4892,66.1073 58.5,62.5C 57.2613,62.0576 56.2613,61.3909 55.5,60.5C 56.8333,60.5 57.5,59.8333 57.5,58.5 Z"/></g>
<g><path style="opacity:1" fill="#29777c" d="M 80.5,49.5 C 83.4749,50.6551 86.1416,52.3218 88.5,54.5C 89.6548,57.4459 89.8214,60.4459 89,63.5C 84.2411,66.5859 79.2411,69.2526 74,71.5C 72.6974,71.0217 71.5307,70.355 70.5,69.5C 69.1854,68.1054 69.5188,67.1054 71.5,66.5C 72.5832,66.5394 73.5832,66.8728 74.5,67.5C 77.9186,65.3735 81.4186,63.3735 85,61.5C 85.6667,59.8333 85.6667,58.1667 85,56.5C 82.833,55.5119 80.9997,54.1786 79.5,52.5C 79.2627,51.209 79.596,50.209 80.5,49.5 Z"/></g>
<g><path style="opacity:1" fill="#1b6e8b" d="M 63.5,74.5 C 64.8333,74.1667 66.1667,73.8333 67.5,73.5C 69.9279,74.2122 72.2612,75.2122 74.5,76.5C 79.0647,74.3914 83.0647,71.558 86.5,68C 91.6558,66.4876 93.3225,68.1542 91.5,73C 86.1279,74.3308 81.1279,76.6641 76.5,80C 75.1667,80.6667 73.8333,80.6667 72.5,80C 69.5121,78.0692 66.5121,76.2358 63.5,74.5 Z"/></g>
<g><path style="opacity:1" fill="#b7c2c6" d="M 42.5,94.5 C 42.6309,93.6236 42.2975,92.9569 41.5,92.5C 40.1667,94.8333 40.1667,97.1667 41.5,99.5C 42.2975,99.0431 42.6309,98.3764 42.5,97.5C 43.5,97.5 44.5,97.5 45.5,97.5C 45.67,98.8221 45.3366,99.9887 44.5,101C 39.4588,102.809 37.1254,101.143 37.5,96C 37.1254,90.8575 39.4588,89.1908 44.5,91C 45.3366,92.0113 45.67,93.1779 45.5,94.5C 44.5,94.5 43.5,94.5 42.5,94.5 Z"/></g>
<g><path style="opacity:1" fill="#d0d8db" d="M 59.5,93.5 C 59.8333,93.5 60.1667,93.5 60.5,93.5C 60.5,96.1667 60.5,98.8333 60.5,101.5C 59.8333,101.5 59.1667,101.5 58.5,101.5C 57.8333,93.5 57.1667,93.5 56.5,101.5C 55.8333,101.5 55.1667,101.5 54.5,101.5C 54.5,98.8333 54.5,96.1667 54.5,93.5C 56.1667,93.5 57.8333,93.5 59.5,93.5 Z"/></g>
<g><path style="opacity:1" fill="#061f10" d="M 89.5,100.5 C 92.1465,97.8502 94.8132,97.8502 97.5,100.5C 97.8333,100.167 98.1667,99.8333 98.5,99.5C 97.3052,97.2487 96.3052,94.9154 95.5,92.5C 94.3112,91.5713 92.9778,91.238 91.5,91.5C 91.1417,94.2666 90.475,96.9333 89.5,99.5C 87.9947,95.885 88.6614,92.5517 91.5,89.5C 93.2844,88.394 95.1178,88.394 97,89.5C 97.9454,89.0946 98.6121,88.428 99,87.5C 100.11,89.0368 101.61,89.7035 103.5,89.5C 104.659,93.7144 104.659,97.8811 103.5,102C 99.5,102.667 95.5,102.667 91.5,102C 90.5842,101.722 89.9175,101.222 89.5,100.5 Z"/></g>
<g><path style="opacity:1" fill="#535d60" d="M 42.5,94.5 C 41.1667,95.5 41.1667,96.5 42.5,97.5C 42.6309,98.3764 42.2975,99.0431 41.5,99.5C 40.1667,97.1667 40.1667,94.8333 41.5,92.5C 42.2975,92.9569 42.6309,93.6236 42.5,94.5 Z"/></g>
<g><path style="opacity:1" fill="#5b8056" d="M 99.5,90.5 C 100.5,90.5 101.5,90.5 102.5,90.5C 102.5,93.8333 102.5,97.1667 102.5,100.5C 101.5,100.5 100.5,100.5 99.5,100.5C 99.5,97.1667 99.5,93.8333 99.5,90.5 Z"/></g>
<g><path style="opacity:1" fill="#cad2d5" d="M 47.5,93.5 C 49.1667,93.5 50.8333,93.5 52.5,93.5C 52.5,95.8333 52.5,98.1667 52.5,100.5C 50.7354,101.461 48.7354,101.795 46.5,101.5C 46.1936,98.6146 46.5269,95.9479 47.5,93.5 Z"/></g>
<g><path style="opacity:1" fill="#5e6568" d="M 48.5,95.5 C 49.5862,95.62 50.2528,96.2867 50.5,97.5C 50.1667,98.1667 49.8333,98.8333 49.5,99.5C 48.5713,98.3112 48.238,96.9778 48.5,95.5 Z"/></g>
<g><path style="opacity:1" fill="#c7d0d2" d="M 62.5,93.5 C 64.288,93.2148 65.9547,93.5481 67.5,94.5C 66.3966,94.9976 65.3966,95.3309 64.5,95.5C 68.0206,96.15 69.0206,97.9834 67.5,101C 65.6131,101.78 63.9464,101.613 62.5,100.5C 62.3691,99.6236 62.7025,98.9569 63.5,98.5C 64.3957,99.5063 65.0623,99.5063 65.5,98.5C 64.675,97.6143 63.675,97.281 62.5,97.5C 62.5,96.1667 62.5,94.8333 62.5,93.5 Z"/></g>
<g><path style="opacity:1" fill="#7bad72" d="M 89.5,100.5 C 89.5,100.167 89.5,99.8333 89.5,99.5C 90.475,96.9333 91.1417,94.2666 91.5,91.5C 92.9778,91.238 94.3112,91.5713 95.5,92.5C 96.3052,94.9154 97.3052,97.2487 98.5,99.5C 98.1667,99.8333 97.8333,100.167 97.5,100.5C 94.8132,97.8502 92.1465,97.8502 89.5,100.5 Z"/></g>
<g><path style="opacity:1" fill="#626a6d" d="M 60.5,93.5 C 61.1667,93.5 61.8333,93.5 62.5,93.5C 62.5,94.8333 62.5,96.1667 62.5,97.5C 63.675,97.281 64.675,97.6143 65.5,98.5C 65.0623,99.5063 64.3957,99.5063 63.5,98.5C 62.7025,98.9569 62.3691,99.6236 62.5,100.5C 61.8333,100.833 61.1667,101.167 60.5,101.5C 60.5,98.8333 60.5,96.1667 60.5,93.5 Z"/></g>
<g><path style="opacity:1" fill="#c5cdcf" d="M 77.5,90.5 C 78.5,90.5 79.5,90.5 80.5,90.5C 80.5,94.1667 80.5,97.8333 80.5,101.5C 79.5,101.5 78.5,101.5 77.5,101.5C 77.5,97.8333 77.5,94.1667 77.5,90.5 Z"/></g>
<g><path style="opacity:1" fill="#bbc6c2" d="M 81.5,91.5 C 83.6348,91.147 84.9681,91.9803 85.5,94C 84.2415,96.1849 84.2415,98.3516 85.5,100.5C 84.3493,101.731 83.1827,101.731 82,100.5C 81.502,97.5184 81.3354,94.5184 81.5,91.5 Z"/></g>
<g><path style="opacity:1" fill="#444c50" d="M 47.5,93.5 C 51.5,92.1667 55.5,92.1667 59.5,93.5C 57.8333,93.5 56.1667,93.5 54.5,93.5C 54.5,96.1667 54.5,98.8333 54.5,101.5C 53.8333,101.167 53.1667,100.833 52.5,100.5C 52.5,98.1667 52.5,95.8333 52.5,93.5C 50.8333,93.5 49.1667,93.5 47.5,93.5 Z"/></g>
<g><path style="opacity:1" fill="#646c6e" d="M 58.5,101.5 C 57.8333,101.5 57.1667,101.5 56.5,101.5C 57.1667,93.5 57.8333,93.5 58.5,101.5 Z"/></g>
<g><path style="opacity:1" fill="#bec5c8" d="M 69.5,93.5 C 70.5,93.5 71.5,93.5 72.5,93.5C 72.8333,101.5 73.1667,101.5 73.5,93.5C 74.5,93.5 75.5,93.5 76.5,93.5C 76.5,96.1667 76.5,98.8333 76.5,101.5C 70.0951,102.594 67.7618,99.9271 69.5,93.5 Z"/></g>
<g><path style="opacity:0.322" fill="#383d42" d="M 16.5,41.5 C 0.392964,76.1565 6.39296,106.157 34.5,131.5C 28.6126,128.451 23.7793,124.118 20,118.5C 4.78474,96.6512 2.11807,73.3179 12,48.5C 13.0259,45.7613 14.5259,43.428 16.5,41.5 Z"/></g>
<g><path style="opacity:0.457" fill="#272b34" d="M 95.5,141.5 C 89.2338,144.22 82.5671,145.553 75.5,145.5C 70.9073,145.621 66.5739,144.954 62.5,143.5C 73.5801,143.874 84.5801,143.207 95.5,141.5 Z"/></g>
</svg>
