<?xml version="1.0" encoding="UTF-8"?>
<!DOCTYPE svg PUBLIC "-//W3C//DTD SVG 1.1//EN" "http://www.w3.org/Graphics/SVG/1.1/DTD/svg11.dtd">
<svg xmlns="http://www.w3.org/2000/svg" version="1.1" width="310px" height="60px" style="shape-rendering:geometricPrecision; text-rendering:geometricPrecision; image-rendering:optimizeQuality; fill-rule:evenodd; clip-rule:evenodd" xmlns:xlink="http://www.w3.org/1999/xlink">
<g><path style="opacity:0.484" fill="#e3e5e8" d="M 6.5,3.5 C 7.9143,5.59829 7.24764,6.59829 4.5,6.5C 4.42702,4.97306 5.09368,3.97306 6.5,3.5 Z"/></g>
<g><path style="opacity:0.773" fill="#393738" d="M 158.5,5.5 C 151.535,4.65905 144.535,4.32572 137.5,4.5C 134.687,4.54807 132.021,5.21473 129.5,6.5C 126.537,4.99936 123.37,4.3327 120,4.5C 114.824,5.72826 109.657,5.72826 104.5,4.5C 101.001,4.40132 97.6679,5.06799 94.5,6.5C 93.5,6 92.5,5.5 91.5,5C 83.0881,4.19898 74.7548,4.36565 66.5,5.5C 60.1961,4.74032 53.8627,4.40699 47.5,4.5C 53.0373,3.19221 58.7039,3.19221 64.5,4.5C 65.5,4 66.5,3.5 67.5,3C 75.5,2.33333 83.5,2.33333 91.5,3C 92.6086,3.63771 93.7753,4.13771 95,4.5C 98.4647,3.67244 101.965,3.00577 105.5,2.5C 110.782,3.68136 115.782,3.68136 120.5,2.5C 123.681,3.11338 126.848,3.78004 130,4.5C 139.131,3.37352 148.298,3.20685 157.5,4C 158.056,4.38258 158.389,4.88258 158.5,5.5 Z"/></g>
<g><path style="opacity:0.992" fill="#090502" d="M 137.5,4.5 C 142.316,5.32614 147.316,5.82614 152.5,6C 145.754,5.86895 139.421,6.70228 133.5,8.5C 133.5,8.83333 133.5,9.16667 133.5,9.5C 133.5,23.5 133.5,37.5 133.5,51.5C 135.322,53.2343 137.655,54.2343 140.5,54.5C 143.823,53.2429 147.156,53.2429 150.5,54.5C 150.137,55.1835 149.804,55.8501 149.5,56.5C 134.245,56.0996 118.912,55.933 103.5,56C 100.667,53.1667 97.8333,50.3333 95,47.5C 93.7475,44.9865 93.2475,42.3198 93.5,39.5C 94.6525,33.6812 94.8192,27.6812 94,21.5C 91.7724,19.8866 89.2724,19.22 86.5,19.5C 86.8016,22.0593 86.4682,24.3926 85.5,26.5C 85.5,23.8333 85.5,21.1667 85.5,18.5C 87.099,18.7678 88.4324,18.4345 89.5,17.5C 89.8333,17.5 90.1667,17.5 90.5,17.5C 91.4767,14.7131 91.81,11.7131 91.5,8.5C 83.5,8.5 75.5,8.5 67.5,8.5C 67.5,11.5 67.5,14.5 67.5,17.5C 69.5,17.5 71.5,17.5 73.5,17.5C 73.5,28.8333 73.5,40.1667 73.5,51.5C 72.5222,51.189 71.8555,50.5223 71.5,49.5C 72.4056,39.3845 72.7389,29.3845 72.5,19.5C 69.1906,20.1926 66.0239,20.1926 63,19.5C 61.699,19.6387 60.8656,20.3054 60.5,21.5C 58.8333,21.5 57.1667,21.5 55.5,21.5C 54.9553,25.1716 54.6219,24.8383 54.5,20.5C 56.1484,19.0735 58.1484,18.2401 60.5,18C 61.3366,16.9887 61.67,15.8221 61.5,14.5C 62.4959,14.4142 63.3292,14.7476 64,15.5C 64.6869,13.0797 64.1869,10.913 62.5,9C 63.5358,7.38307 64.7025,7.21641 66,8.5C 66.4828,7.55198 66.6495,6.55198 66.5,5.5C 74.7548,4.36565 83.0881,4.19898 91.5,5C 92.5,5.5 93.5,6 94.5,6.5C 97.6679,5.06799 101.001,4.40132 104.5,4.5C 109.657,5.72826 114.824,5.72826 120,4.5C 123.37,4.3327 126.537,4.99936 129.5,6.5C 132.021,5.21473 134.687,4.54807 137.5,4.5 Z"/></g>
<g><path style="opacity:1" fill="#140404" d="M 197.5,27.5 C 196.778,27.0825 196.278,26.4158 196,25.5C 195.667,25.8333 195.333,26.1667 195,26.5C 195.03,29.3615 194.197,31.6948 192.5,33.5C 192.802,30.9407 192.468,28.6074 191.5,26.5C 188.375,25.5206 185.042,25.1872 181.5,25.5C 181.5,23.1667 181.5,20.8333 181.5,18.5C 185.702,18.8168 189.702,18.4834 193.5,17.5C 193.5,14.5 193.5,11.5 193.5,8.5C 185.316,8.17428 177.316,8.50761 169.5,9.5C 169.5,23.5 169.5,37.5 169.5,51.5C 167.62,51.2291 166.287,51.8958 165.5,53.5C 164.842,52.6016 164.176,51.6016 163.5,50.5C 161.35,52.1491 159.35,53.9824 157.5,56C 154.854,56.4974 152.187,56.6641 149.5,56.5C 149.804,55.8501 150.137,55.1835 150.5,54.5C 147.156,53.2429 143.823,53.2429 140.5,54.5C 137.655,54.2343 135.322,53.2343 133.5,51.5C 140.841,51.6663 148.174,51.4997 155.5,51C 157.041,49.6288 158.375,48.1288 159.5,46.5C 160.458,46.0472 161.292,45.3805 162,44.5C 162.825,34.6578 162.658,24.9911 161.5,15.5C 161.167,14.5 160.5,13.8333 159.5,13.5C 158.375,11.8712 157.041,10.3712 155.5,9C 148.174,8.50034 140.841,8.33368 133.5,8.5C 139.421,6.70228 145.754,5.86895 152.5,6C 147.316,5.82614 142.316,5.32614 137.5,4.5C 144.535,4.32572 151.535,4.65905 158.5,5.5C 160.463,6.95991 162.296,8.62658 164,10.5C 164.068,7.68069 165.234,5.51402 167.5,4C 176.833,3.33333 186.167,3.33333 195.5,4C 196.333,4.83333 197.167,5.66667 198,6.5C 198.975,12.1698 198.475,17.6698 196.5,23C 197.148,24.4397 197.481,25.9397 197.5,27.5 Z"/></g>
<g><path style="opacity:1" fill="#100611" d="M 267.5,3.5 C 267.414,4.4959 267.748,5.32924 268.5,6C 270.382,6.19808 272.048,6.69808 273.5,7.5C 271.533,7.26057 269.699,7.59391 268,8.5C 267.5,14.8246 267.334,21.1579 267.5,27.5C 264.913,26.1462 263.579,27.1462 263.5,30.5C 263.244,36.8427 263.577,43.3427 264.5,50C 263.956,50.7172 263.289,51.2172 262.5,51.5C 262.667,39.1622 262.5,26.8288 262,14.5C 257.914,8.7747 252.414,6.94137 245.5,9C 243.946,10.892 242.112,12.392 240,13.5C 237.888,12.392 236.054,10.892 234.5,9C 230.642,8.19007 226.976,8.35673 223.5,9.5C 222.391,9.55688 221.391,9.89022 220.5,10.5C 220.179,8.95186 219.179,8.28519 217.5,8.5C 218.625,6.87121 219.959,5.37121 221.5,4C 226.167,3.33333 230.833,3.33333 235.5,4C 237.286,4.78451 238.786,5.95118 240,7.5C 241.167,6.33333 242.333,5.16667 243.5,4C 248.167,3.33333 252.833,3.33333 257.5,4C 259.305,4.97201 260.972,6.13868 262.5,7.5C 263.605,5.3886 265.271,4.05527 267.5,3.5 Z"/></g>
<g><path style="opacity:1" fill="#06060b" d="M 47.5,4.5 C 53.8627,4.40699 60.1961,4.74032 66.5,5.5C 66.6495,6.55198 66.4828,7.55198 66,8.5C 64.7025,7.21641 63.5358,7.38307 62.5,9C 64.1869,10.913 64.6869,13.0797 64,15.5C 63.3292,14.7476 62.4959,14.4142 61.5,14.5C 61.5,12.5 61.5,10.5 61.5,8.5C 57.1539,8.33432 52.8206,8.50098 48.5,9C 47.944,9.38258 47.6107,9.88258 47.5,10.5C 44.865,11.4735 42.865,13.1402 41.5,15.5C 39.7074,15.8836 38.7074,17.0503 38.5,19C 40.5571,24.0918 39.5571,28.2585 35.5,31.5C 34.8302,29.7086 34.1635,28.0419 33.5,26.5C 30.0381,25.5184 26.3714,25.185 22.5,25.5C 22.5,23.1667 22.5,20.8333 22.5,18.5C 26.3714,18.815 30.0381,18.4816 33.5,17.5C 34.1667,17.5 34.5,17.1667 34.5,16.5C 35.8166,13.7699 35.8166,10.9365 34.5,8C 26.6554,7.17767 18.9887,7.34434 11.5,8.5C 10.8333,8.5 10.5,8.83333 10.5,9.5C 9.50389,24.324 9.17056,39.324 9.5,54.5C 8.5,54.5 7.5,54.5 6.5,54.5C 5.83333,38.5 5.16667,22.5 4.5,6.5C 7.24764,6.59829 7.9143,5.59829 6.5,3.5C 15.7706,2.84702 24.9373,2.51369 34,2.5C 37.4357,3.09982 39.269,5.09982 39.5,8.5C 42.368,7.64733 45.0347,6.314 47.5,4.5 Z"/></g>
<g><path style="opacity:1" fill="#00143a" d="M 11.5,8.5 C 18.9887,7.34434 26.6554,7.17767 34.5,8C 35.8166,10.9365 35.8166,13.7699 34.5,16.5C 34.8016,13.9407 34.4682,11.6074 33.5,9.5C 26.3524,8.50837 19.0191,8.17503 11.5,8.5 Z"/></g>
<g><path style="opacity:1" fill="#832e1c" d="M 133.5,9.5 C 133.5,9.16667 133.5,8.83333 133.5,8.5C 140.841,8.33368 148.174,8.50034 155.5,9C 157.041,10.3712 158.375,11.8712 159.5,13.5C 157.589,12.925 155.922,11.925 154.5,10.5C 147.687,9.50881 140.687,9.17547 133.5,9.5 Z"/></g>
<g><path style="opacity:1" fill="#630471" d="M 223.5,9.5 C 226.976,8.35673 230.642,8.19007 234.5,9C 236.054,10.892 237.888,12.392 240,13.5C 242.112,12.392 243.946,10.892 245.5,9C 252.414,6.94137 257.914,8.7747 262,14.5C 262.5,26.8288 262.667,39.1622 262.5,51.5C 262.167,51.5 261.833,51.5 261.5,51.5C 261.828,39.3217 261.495,27.3217 260.5,15.5C 254.45,7.70211 248.117,7.53544 241.5,15C 240.072,15.5791 238.738,15.4124 237.5,14.5C 236.375,12.8712 235.041,11.3712 233.5,10C 230.183,9.50166 226.85,9.33499 223.5,9.5 Z"/></g>
<g><path style="opacity:1" fill="#dc04fb" d="M 260.5,15.5 C 260.5,27.1667 260.5,38.8333 260.5,50.5C 257.833,50.5 255.167,50.5 252.5,50.5C 252.828,39.3206 252.495,28.3206 251.5,17.5C 250.207,16.8418 248.707,16.5085 247,16.5C 245.019,16.6292 243.353,17.2958 242,18.5C 240.302,17.2593 238.802,15.926 237.5,14.5C 238.738,15.4124 240.072,15.5791 241.5,15C 248.117,7.53544 254.45,7.70211 260.5,15.5 Z"/></g>
<g><path style="opacity:0.982" fill="#0b070b" d="M 267.5,3.5 C 277.797,4.36432 288.13,4.53098 298.5,4C 300.538,5.23605 301.705,7.06938 302,9.5C 302.856,17.2318 302.523,24.8984 301,32.5C 298.294,34.8706 295.961,37.5372 294,40.5C 293.881,45.2824 293.215,49.9491 292,54.5C 286.31,58.1079 280.477,58.4412 274.5,55.5C 275.735,55.2786 276.735,54.6119 277.5,53.5C 278.086,53.7093 278.586,54.0426 279,54.5C 282.411,53.7069 285.911,53.2069 289.5,53C 290,52.5 290.5,52 291,51.5C 292.215,46.9491 292.881,42.2824 293,37.5C 294.372,36.0899 295.205,34.4233 295.5,32.5C 295.5,32.1667 295.5,31.8333 295.5,31.5C 296.823,28.0623 297.49,24.229 297.5,20C 297.499,15.9848 297.165,12.1515 296.5,8.5C 294.866,7.83891 293.033,7.50558 291,7.5C 288.705,7.5465 286.871,8.21317 285.5,9.5C 284.51,15.31 284.177,21.31 284.5,27.5C 283.167,27.5 281.833,27.5 280.5,27.5C 280.823,21.31 280.49,15.31 279.5,9.5C 278.01,7.72017 276.01,7.05351 273.5,7.5C 272.048,6.69808 270.382,6.19808 268.5,6C 267.748,5.32924 267.414,4.4959 267.5,3.5 Z"/></g>
<g><path style="opacity:1" fill="#300036" d="M 296.5,8.5 C 292.958,8.18723 289.625,8.52056 286.5,9.5C 286.167,9.5 285.833,9.5 285.5,9.5C 286.871,8.21317 288.705,7.5465 291,7.5C 293.033,7.50558 294.866,7.83891 296.5,8.5 Z"/></g>
<g><path style="opacity:0.945" fill="#0a020a" d="M 217.5,8.5 C 219.179,8.28519 220.179,8.95186 220.5,10.5C 220.315,12.1958 219.481,13.5291 218,14.5C 217.5,27.1623 217.333,39.8289 217.5,52.5C 221.371,52.815 225.038,52.4816 228.5,51.5C 229.495,40.6794 229.828,29.6794 229.5,18.5C 230.833,18.5 232.167,18.5 233.5,18.5C 233.172,29.6794 233.505,40.6794 234.5,51.5C 238.167,51.5 241.833,51.5 245.5,51.5C 245.5,40.5 245.5,29.5 245.5,18.5C 247.167,18.5 248.833,18.5 250.5,18.5C 250.172,29.6794 250.505,40.6794 251.5,51.5C 254.833,51.5 258.167,51.5 261.5,51.5C 261.833,51.5 262.167,51.5 262.5,51.5C 263.289,51.2172 263.956,50.7172 264.5,50C 263.577,43.3427 263.244,36.8427 263.5,30.5C 263.579,27.1462 264.913,26.1462 267.5,27.5C 267.263,28.791 267.596,29.791 268.5,30.5C 269.9,31.1001 270.9,32.1001 271.5,33.5C 272.793,35.2959 274.293,36.9625 276,38.5C 276.175,43.0195 276.675,47.3528 277.5,51.5C 280.833,51.5 284.167,51.5 287.5,51.5C 287.996,46.1124 288.996,40.779 290.5,35.5C 292.411,34.925 294.078,33.925 295.5,32.5C 295.205,34.4233 294.372,36.0899 293,37.5C 292.881,42.2824 292.215,46.9491 291,51.5C 290.5,52 290,52.5 289.5,53C 285.911,53.2069 282.411,53.7069 279,54.5C 278.586,54.0426 278.086,53.7093 277.5,53.5C 276.735,54.6119 275.735,55.2786 274.5,55.5C 273.21,54.9423 272.377,53.9423 272,52.5C 271.667,48.5 271.333,44.5 271,40.5C 270,39.5 269,38.5 268,37.5C 267.667,41.8333 267.333,46.1667 267,50.5C 266.705,52.9306 265.538,54.764 263.5,56C 236.237,56.4258 208.904,56.5924 181.5,56.5C 176.5,56.3333 171.5,56.1667 166.5,56C 165.748,55.3292 165.414,54.4959 165.5,53.5C 166.287,51.8958 167.62,51.2291 169.5,51.5C 173.319,52.1656 177.319,52.4989 181.5,52.5C 185.893,52.4907 189.893,51.824 193.5,50.5C 193.5,47.8333 193.5,45.1667 193.5,42.5C 189.167,42.5 184.833,42.5 180.5,42.5C 180.5,39.8333 180.5,37.1667 180.5,34.5C 184.702,34.8168 188.702,34.4834 192.5,33.5C 194.197,31.6948 195.03,29.3615 195,26.5C 195.333,26.1667 195.667,25.8333 196,25.5C 196.278,26.4158 196.778,27.0825 197.5,27.5C 197.337,29.8568 197.503,32.1902 198,34.5C 198.383,33.944 198.883,33.6107 199.5,33.5C 201.223,34.8001 203.39,35.4668 206,35.5C 208.167,35.3333 210.333,35.1667 212.5,35C 213.824,30.0671 213.824,25.2337 212.5,20.5C 211.465,15.2737 213.132,11.2737 217.5,8.5 Z"/></g>
<g><path style="opacity:1" fill="#5b0169" d="M 273.5,7.5 C 276.01,7.05351 278.01,7.72017 279.5,9.5C 279.5,15.8333 279.5,22.1667 279.5,28.5C 281.5,28.5 283.5,28.5 285.5,28.5C 283.393,29.4682 281.059,29.8016 278.5,29.5C 278.5,22.8333 278.5,16.1667 278.5,9.5C 275.167,9.5 271.833,9.5 268.5,9.5C 268.5,16.5 268.5,23.5 268.5,30.5C 267.596,29.791 267.263,28.791 267.5,27.5C 267.334,21.1579 267.5,14.8246 268,8.5C 269.699,7.59391 271.533,7.26057 273.5,7.5 Z"/></g>
<g><path style="opacity:1" fill="#154e9d" d="M 11.5,8.5 C 19.0191,8.17503 26.3524,8.50837 33.5,9.5C 26.1667,9.5 18.8333,9.5 11.5,9.5C 11.5,23.1667 11.5,36.8333 11.5,50.5C 18.8333,50.5 26.1667,50.5 33.5,50.5C 33.5,48.1667 33.5,45.8333 33.5,43.5C 34.4731,45.9479 34.8064,48.6146 34.5,51.5C 26.5,51.5 18.5,51.5 10.5,51.5C 10.5,37.5 10.5,23.5 10.5,9.5C 10.5,8.83333 10.8333,8.5 11.5,8.5 Z"/></g>
<g><path style="opacity:1" fill="#241700" d="M 115.5,8.5 C 115.5,8.83333 115.5,9.16667 115.5,9.5C 115.5,20.5 115.5,31.5 115.5,42.5C 113.5,42.5 111.5,42.5 109.5,42.5C 109.5,32.1667 109.5,21.8333 109.5,11.5C 110.494,21.3194 110.827,31.3194 110.5,41.5C 111.833,41.5 113.167,41.5 114.5,41.5C 114.172,30.3206 114.505,19.3206 115.5,8.5 Z"/></g>
<g><path style="opacity:1" fill="#efca0b" d="M 109.5,9.5 C 109.5,10.1667 109.5,10.8333 109.5,11.5C 109.5,21.8333 109.5,32.1667 109.5,42.5C 111.5,42.5 113.5,42.5 115.5,42.5C 116.494,32.0131 116.828,21.3464 116.5,10.5C 119.167,10.5 121.833,10.5 124.5,10.5C 124.5,23.8333 124.5,37.1667 124.5,50.5C 117.323,51.0018 110.323,50.3351 103.5,48.5C 101.833,47.5 100.5,46.1667 99.5,44.5C 99.5,32.8333 99.5,21.1667 99.5,9.5C 102.833,9.5 106.167,9.5 109.5,9.5 Z"/></g>
<g><path style="opacity:1" fill="#7b6810" d="M 115.5,9.5 C 115.5,9.16667 115.5,8.83333 115.5,8.5C 119.167,8.5 122.833,8.5 126.5,8.5C 126.829,23.0097 126.496,37.3431 125.5,51.5C 125.5,37.5 125.5,23.5 125.5,9.5C 122.167,9.5 118.833,9.5 115.5,9.5 Z"/></g>
<g><path style="opacity:1" fill="#d906f7" d="M 223.5,9.5 C 226.85,9.33499 230.183,9.50166 233.5,10C 235.041,11.3712 236.375,12.8712 237.5,14.5C 238.802,15.926 240.302,17.2593 242,18.5C 243.353,17.2958 245.019,16.6292 247,16.5C 248.707,16.5085 250.207,16.8418 251.5,17.5C 249.5,17.5 247.5,17.5 245.5,17.5C 244.505,28.3206 244.172,39.3206 244.5,50.5C 241.5,50.5 238.5,50.5 235.5,50.5C 235.828,39.3206 235.495,28.3206 234.5,17.5C 232.5,17.5 230.5,17.5 228.5,17.5C 227.505,28.3206 227.172,39.3206 227.5,50.5C 224.833,50.5 222.167,50.5 219.5,50.5C 219.333,39.1618 219.5,27.8284 220,16.5C 221.947,14.9366 223.114,12.9366 223.5,10.5C 223.5,10.1667 223.5,9.83333 223.5,9.5 Z"/></g>
<g><path style="opacity:1" fill="#4b025b" d="M 286.5,9.5 C 289.625,8.52056 292.958,8.18723 296.5,8.5C 297.165,12.1515 297.499,15.9848 297.5,20C 297.49,24.229 296.823,28.0623 295.5,31.5C 296.464,24.2537 296.797,16.9204 296.5,9.5C 293.167,9.5 289.833,9.5 286.5,9.5 Z"/></g>
<g><path style="opacity:1" fill="#988421" d="M 109.5,9.5 C 106.167,9.5 102.833,9.5 99.5,9.5C 99.5,21.1667 99.5,32.8333 99.5,44.5C 98.5049,32.6783 98.1716,20.6783 98.5,8.5C 102.371,8.18503 106.038,8.51836 109.5,9.5 Z"/></g>
<g><path style="opacity:1" fill="#d7bb23" d="M 115.5,9.5 C 118.833,9.5 122.167,9.5 125.5,9.5C 125.5,23.5 125.5,37.5 125.5,51.5C 118.825,51.6663 112.158,51.4996 105.5,51C 104.619,50.2917 103.953,49.4584 103.5,48.5C 110.323,50.3351 117.323,51.0018 124.5,50.5C 124.5,37.1667 124.5,23.8333 124.5,10.5C 121.833,10.5 119.167,10.5 116.5,10.5C 116.828,21.3464 116.494,32.0131 115.5,42.5C 115.5,31.5 115.5,20.5 115.5,9.5 Z"/></g>
<g><path style="opacity:1" fill="#ba1f22" d="M 169.5,9.5 C 177.352,9.17464 185.018,9.50797 192.5,10.5C 185.167,10.5 177.833,10.5 170.5,10.5C 170.5,23.8333 170.5,37.1667 170.5,50.5C 177.833,50.5 185.167,50.5 192.5,50.5C 185.018,51.492 177.352,51.8254 169.5,51.5C 169.5,37.5 169.5,23.5 169.5,9.5 Z"/></g>
<g><path style="opacity:1" fill="#730183" d="M 223.5,9.5 C 223.5,9.83333 223.5,10.1667 223.5,10.5C 222.017,12.0938 220.517,13.7605 219,15.5C 218.5,27.4954 218.333,39.4954 218.5,51.5C 221.833,51.5 225.167,51.5 228.5,51.5C 225.038,52.4816 221.371,52.815 217.5,52.5C 217.333,39.8289 217.5,27.1623 218,14.5C 219.481,13.5291 220.315,12.1958 220.5,10.5C 221.391,9.89022 222.391,9.55688 223.5,9.5 Z"/></g>
<g><path style="opacity:1" fill="#3e0100" d="M 193.5,17.5 C 189.702,18.4834 185.702,18.8168 181.5,18.5C 181.5,20.8333 181.5,23.1667 181.5,25.5C 185.042,25.1872 188.375,25.5206 191.5,26.5C 187.833,26.5 184.167,26.5 180.5,26.5C 180.5,23.5 180.5,20.5 180.5,17.5C 184.833,17.5 189.167,17.5 193.5,17.5 Z"/></g>
<g><path style="opacity:0.992" fill="#0c0a0c" d="M 73.5,51.5 C 77.3714,51.815 81.0381,51.4816 84.5,50.5C 85.4924,42.6841 85.8257,34.6841 85.5,26.5C 86.4682,24.3926 86.8016,22.0593 86.5,19.5C 89.2724,19.22 91.7724,19.8866 94,21.5C 94.8192,27.6812 94.6525,33.6812 93.5,39.5C 93.8288,33.7945 93.4954,28.1278 92.5,22.5C 92.1667,22.6667 91.8333,22.8333 91.5,23C 90.9395,33.4953 90.1062,43.9953 89,54.5C 86.5206,56.9168 83.5206,57.9168 80,57.5C 75.1613,58.1208 71.4946,56.4541 69,52.5C 68.5002,42.5056 68.3335,32.5056 68.5,22.5C 65.8728,21.9084 63.2062,21.5751 60.5,21.5C 60.8656,20.3054 61.699,19.6387 63,19.5C 66.0239,20.1926 69.1906,20.1926 72.5,19.5C 72.7389,29.3845 72.4056,39.3845 71.5,49.5C 71.8555,50.5223 72.5222,51.189 73.5,51.5 Z"/></g>
<g><path style="opacity:1" fill="#062d56" d="M 61.5,14.5 C 61.67,15.8221 61.3366,16.9887 60.5,18C 58.1484,18.2401 56.1484,19.0735 54.5,20.5C 53.5489,21.9187 53.2155,23.5853 53.5,25.5C 52.3065,25.0296 51.6399,24.0296 51.5,22.5C 51.6667,21.5 51.8333,20.5 52,19.5C 54.2235,17.946 56.7235,16.946 59.5,16.5C 60.4742,14.2573 60.8076,11.924 60.5,9.5C 56.1018,9.2941 51.7685,9.62743 47.5,10.5C 47.6107,9.88258 47.944,9.38258 48.5,9C 52.8206,8.50098 57.1539,8.33432 61.5,8.5C 61.5,10.5 61.5,12.5 61.5,14.5 Z"/></g>
<g><path style="opacity:1" fill="#0f6f0c" d="M 90.5,17.5 C 90.1667,17.5 89.8333,17.5 89.5,17.5C 87.8333,17.5 86.1667,17.5 84.5,17.5C 84.5,28.5 84.5,39.5 84.5,50.5C 81.5525,50.7771 78.7191,50.4438 76,49.5C 75.6667,38.8333 75.3333,28.1667 75,17.5C 72.9592,16.5769 70.7925,16.2436 68.5,16.5C 68.5,14.1667 68.5,11.8333 68.5,9.5C 75.8333,9.5 83.1667,9.5 90.5,9.5C 90.5,12.1667 90.5,14.8333 90.5,17.5 Z"/></g>
<g><path style="opacity:1" fill="#002900" d="M 89.5,17.5 C 88.4324,18.4345 87.099,18.7678 85.5,18.5C 85.5,21.1667 85.5,23.8333 85.5,26.5C 85.8257,34.6841 85.4924,42.6841 84.5,50.5C 84.5,39.5 84.5,28.5 84.5,17.5C 86.1667,17.5 87.8333,17.5 89.5,17.5 Z"/></g>
<g><path style="opacity:1" fill="#97181b" d="M 169.5,9.5 C 177.316,8.50761 185.316,8.17428 193.5,8.5C 193.5,11.5 193.5,14.5 193.5,17.5C 189.167,17.5 184.833,17.5 180.5,17.5C 180.5,20.5 180.5,23.5 180.5,26.5C 184.167,26.5 187.833,26.5 191.5,26.5C 192.468,28.6074 192.802,30.9407 192.5,33.5C 188.702,34.4834 184.702,34.8168 180.5,34.5C 180.5,37.1667 180.5,39.8333 180.5,42.5C 184.833,42.5 189.167,42.5 193.5,42.5C 193.5,45.1667 193.5,47.8333 193.5,50.5C 193.167,50.5 192.833,50.5 192.5,50.5C 192.5,48.5 192.5,46.5 192.5,44.5C 188.154,44.6657 183.821,44.499 179.5,44C 178.544,40.6064 178.211,37.1064 178.5,33.5C 182.833,33.5 187.167,33.5 191.5,33.5C 191.5,31.5 191.5,29.5 191.5,27.5C 187.5,27.5 183.5,27.5 179.5,27.5C 179.5,23.8333 179.5,20.1667 179.5,16.5C 183.833,16.5 188.167,16.5 192.5,16.5C 192.5,14.5 192.5,12.5 192.5,10.5C 185.018,9.50797 177.352,9.17464 169.5,9.5 Z"/></g>
<g><path style="opacity:1" fill="#be11d6" d="M 260.5,15.5 C 261.495,27.3217 261.828,39.3217 261.5,51.5C 258.167,51.5 254.833,51.5 251.5,51.5C 251.5,40.1667 251.5,28.8333 251.5,17.5C 252.495,28.3206 252.828,39.3206 252.5,50.5C 255.167,50.5 257.833,50.5 260.5,50.5C 260.5,38.8333 260.5,27.1667 260.5,15.5 Z"/></g>
<g><path style="opacity:0.708" fill="#2f2a2b" d="M 212.5,20.5 C 213.824,25.2337 213.824,30.0671 212.5,35C 210.333,35.1667 208.167,35.3333 206,35.5C 203.39,35.4668 201.223,34.8001 199.5,33.5C 203.833,33.5 208.167,33.5 212.5,33.5C 212.5,29.1667 212.5,24.8333 212.5,20.5 Z"/></g>
<g><path style="opacity:1" fill="#0d4d0f" d="M 90.5,17.5 C 90.5,14.8333 90.5,12.1667 90.5,9.5C 83.1667,9.5 75.8333,9.5 68.5,9.5C 68.5,11.8333 68.5,14.1667 68.5,16.5C 70.7925,16.2436 72.9592,16.5769 75,17.5C 75.3333,28.1667 75.6667,38.8333 76,49.5C 78.7191,50.4438 81.5525,50.7771 84.5,50.5C 81.0381,51.4816 77.3714,51.815 73.5,51.5C 73.5,40.1667 73.5,28.8333 73.5,17.5C 71.5,17.5 69.5,17.5 67.5,17.5C 67.5,14.5 67.5,11.5 67.5,8.5C 75.5,8.5 83.5,8.5 91.5,8.5C 91.81,11.7131 91.4767,14.7131 90.5,17.5 Z"/></g>
<g><path style="opacity:1" fill="#1361a6" d="M 47.5,10.5 C 42.4379,15.8183 41.1046,22.1516 43.5,29.5C 46.2921,29.6225 48.2921,30.9558 49.5,33.5C 46.8726,32.4536 44.3726,31.1202 42,29.5C 41.5008,24.8452 41.3342,20.1785 41.5,15.5C 42.865,13.1402 44.865,11.4735 47.5,10.5 Z"/></g>
<g><path style="opacity:1" fill="#d607f4" d="M 285.5,28.5 C 285.5,22.1667 285.5,15.8333 285.5,9.5C 285.833,9.5 286.167,9.5 286.5,9.5C 289.833,9.5 293.167,9.5 296.5,9.5C 296.797,16.9204 296.464,24.2537 295.5,31.5C 293.251,32.0798 291.585,33.4131 290.5,35.5C 289.5,36.1667 288.5,36.8333 287.5,37.5C 286.834,41.0208 286.167,44.6875 285.5,48.5C 284.749,47.624 284.249,46.624 284,45.5C 283.155,48.4122 281.488,49.4122 279,48.5C 278.823,44.6437 278.323,40.977 277.5,37.5C 275.754,35.7484 273.754,34.4151 271.5,33.5C 270.9,32.1001 269.9,31.1001 268.5,30.5C 268.5,23.5 268.5,16.5 268.5,9.5C 271.833,9.5 275.167,9.5 278.5,9.5C 278.5,16.1667 278.5,22.8333 278.5,29.5C 281.059,29.8016 283.393,29.4682 285.5,28.5 Z"/></g>
<g><path style="opacity:1" fill="#1d0123" d="M 279.5,9.5 C 280.49,15.31 280.823,21.31 280.5,27.5C 281.833,27.5 283.167,27.5 284.5,27.5C 284.177,21.31 284.51,15.31 285.5,9.5C 285.5,15.8333 285.5,22.1667 285.5,28.5C 283.5,28.5 281.5,28.5 279.5,28.5C 279.5,22.1667 279.5,15.8333 279.5,9.5 Z"/></g>
<g><path style="opacity:1" fill="#bf15d9" d="M 223.5,10.5 C 223.114,12.9366 221.947,14.9366 220,16.5C 219.5,27.8284 219.333,39.1618 219.5,50.5C 222.167,50.5 224.833,50.5 227.5,50.5C 227.172,39.3206 227.505,28.3206 228.5,17.5C 228.5,28.8333 228.5,40.1667 228.5,51.5C 225.167,51.5 221.833,51.5 218.5,51.5C 218.333,39.4954 218.5,27.4954 219,15.5C 220.517,13.7605 222.017,12.0938 223.5,10.5 Z"/></g>
<g><path style="opacity:1" fill="#380046" d="M 228.5,17.5 C 230.5,17.5 232.5,17.5 234.5,17.5C 234.5,28.8333 234.5,40.1667 234.5,51.5C 233.505,40.6794 233.172,29.6794 233.5,18.5C 232.167,18.5 230.833,18.5 229.5,18.5C 229.828,29.6794 229.495,40.6794 228.5,51.5C 228.5,40.1667 228.5,28.8333 228.5,17.5 Z"/></g>
<g><path style="opacity:1" fill="#9915ae" d="M 234.5,17.5 C 235.495,28.3206 235.828,39.3206 235.5,50.5C 238.5,50.5 241.5,50.5 244.5,50.5C 244.172,39.3206 244.505,28.3206 245.5,17.5C 245.5,17.8333 245.5,18.1667 245.5,18.5C 245.5,29.5 245.5,40.5 245.5,51.5C 241.833,51.5 238.167,51.5 234.5,51.5C 234.5,40.1667 234.5,28.8333 234.5,17.5 Z"/></g>
<g><path style="opacity:1" fill="#61066f" d="M 245.5,18.5 C 245.5,18.1667 245.5,17.8333 245.5,17.5C 247.5,17.5 249.5,17.5 251.5,17.5C 251.5,28.8333 251.5,40.1667 251.5,51.5C 250.505,40.6794 250.172,29.6794 250.5,18.5C 248.833,18.5 247.167,18.5 245.5,18.5 Z"/></g>
<g><path style="opacity:1" fill="#460058" d="M 295.5,31.5 C 295.5,31.8333 295.5,32.1667 295.5,32.5C 294.078,33.925 292.411,34.925 290.5,35.5C 291.585,33.4131 293.251,32.0798 295.5,31.5 Z"/></g>
<g><path style="opacity:1" fill="#772b16" d="M 161.5,15.5 C 162.658,24.9911 162.825,34.6578 162,44.5C 161.292,45.3805 160.458,46.0472 159.5,46.5C 159.461,45.2438 159.961,44.2438 161,43.5C 161.5,34.1726 161.666,24.8393 161.5,15.5 Z"/></g>
<g><path style="opacity:1" fill="#0f83e9" d="M 53.5,25.5 C 55.2367,27.8802 57.57,29.5469 60.5,30.5C 61.4948,35.7921 61.8282,41.1254 61.5,46.5C 58.366,47.2407 55.366,48.2407 52.5,49.5C 49.2356,50.3242 45.9023,50.6576 42.5,50.5C 42.5,48.1667 42.5,45.8333 42.5,43.5C 45.0725,42.7814 47.5725,41.7814 50,40.5C 50.7958,37.9615 50.6291,35.6282 49.5,33.5C 48.2921,30.9558 46.2921,29.6225 43.5,29.5C 41.1046,22.1516 42.4379,15.8183 47.5,10.5C 51.7685,9.62743 56.1018,9.2941 60.5,9.5C 60.8076,11.924 60.4742,14.2573 59.5,16.5C 56.7235,16.946 54.2235,17.946 52,19.5C 51.8333,20.5 51.6667,21.5 51.5,22.5C 51.6399,24.0296 52.3065,25.0296 53.5,25.5 Z"/></g>
<g><path style="opacity:1" fill="#5e026d" d="M 271.5,33.5 C 273.754,34.4151 275.754,35.7484 277.5,37.5C 277.5,42.1667 277.5,46.8333 277.5,51.5C 276.675,47.3528 276.175,43.0195 276,38.5C 274.293,36.9625 272.793,35.2959 271.5,33.5 Z"/></g>
<g><path style="opacity:1" fill="#480056" d="M 290.5,35.5 C 288.996,40.779 287.996,46.1124 287.5,51.5C 287.5,46.8333 287.5,42.1667 287.5,37.5C 288.5,36.8333 289.5,36.1667 290.5,35.5 Z"/></g>
<g><path style="opacity:1" fill="#0c69e3" d="M 33.5,9.5 C 34.4682,11.6074 34.8016,13.9407 34.5,16.5C 34.5,17.1667 34.1667,17.5 33.5,17.5C 29.5,17.5 25.5,17.5 21.5,17.5C 21.5,20.5 21.5,23.5 21.5,26.5C 25.5,26.5 29.5,26.5 33.5,26.5C 33.5,28.8333 33.5,31.1667 33.5,33.5C 29.5,33.5 25.5,33.5 21.5,33.5C 21.5,36.8333 21.5,40.1667 21.5,43.5C 25.5,43.5 29.5,43.5 33.5,43.5C 33.5,45.8333 33.5,48.1667 33.5,50.5C 26.1667,50.5 18.8333,50.5 11.5,50.5C 11.5,36.8333 11.5,23.1667 11.5,9.5C 18.8333,9.5 26.1667,9.5 33.5,9.5 Z"/></g>
<g><path style="opacity:1" fill="#066bf1" d="M 21.5,17.5 C 18.7079,18.3918 17.3746,20.3918 17.5,23.5C 18.5,23.5 19.5,23.5 20.5,23.5C 20.6567,24.8734 20.49,26.2068 20,27.5C 18.8904,25.9632 17.3904,25.2965 15.5,25.5C 15.4501,27.5901 16.4501,28.9234 18.5,29.5C 19.48,32.0865 19.8134,34.7531 19.5,37.5C 14.1667,38.1667 14.1667,38.8333 19.5,39.5C 19.5,40.5 19.5,41.5 19.5,42.5C 18.0222,42.238 16.6888,42.5713 15.5,43.5C 16.9501,44.8498 17.6168,46.5165 17.5,48.5C 15.8561,48.7135 14.3561,48.3802 13,47.5C 12.5001,35.1712 12.3335,22.8378 12.5,10.5C 19.1667,10.5 25.8333,10.5 32.5,10.5C 32.8333,12.5 33.1667,14.5 33.5,16.5C 29.2984,16.1832 25.2984,16.5166 21.5,17.5 Z"/></g>
<g><path style="opacity:1" fill="#d24b2f" d="M 133.5,9.5 C 140.687,9.17547 147.687,9.50881 154.5,10.5C 155.922,11.925 157.589,12.925 159.5,13.5C 160.5,13.8333 161.167,14.5 161.5,15.5C 161.666,24.8393 161.5,34.1726 161,43.5C 159.961,44.2438 159.461,45.2438 159.5,46.5C 158.375,48.1288 157.041,49.6288 155.5,51C 148.174,51.4997 140.841,51.6663 133.5,51.5C 133.5,37.5 133.5,23.5 133.5,9.5 Z"/></g>
<g><path style="opacity:1" fill="#f04c26" d="M 154.5,10.5 C 155.121,13.1213 156.788,14.788 159.5,15.5C 161.006,25.6292 160.673,35.6292 158.5,45.5C 157.167,45.5 155.833,45.5 154.5,45.5C 154.5,46.8333 154.5,48.1667 154.5,49.5C 147.863,50.2757 141.196,50.609 134.5,50.5C 134.5,37.1667 134.5,23.8333 134.5,10.5C 141.167,10.5 147.833,10.5 154.5,10.5 Z"/></g>
<g><path style="opacity:1" fill="#b24129" d="M 144.5,17.5 C 144.5,25.8333 144.5,34.1667 144.5,42.5C 146.735,42.7947 148.735,42.4614 150.5,41.5C 151.492,33.6841 151.826,25.6841 151.5,17.5C 152.657,25.6563 152.823,33.9896 152,42.5C 149.519,44.3137 146.685,44.9804 143.5,44.5C 143.173,35.3178 143.507,26.3178 144.5,17.5 Z"/></g>
<g><path style="opacity:1" fill="#2d0400" d="M 144.5,17.5 C 146.833,17.5 149.167,17.5 151.5,17.5C 151.826,25.6841 151.492,33.6841 150.5,41.5C 148.735,42.4614 146.735,42.7947 144.5,42.5C 144.5,34.1667 144.5,25.8333 144.5,17.5 Z"/></g>
<g><path style="opacity:1" fill="#070000" d="M 150.5,41.5 C 148.833,41.5 147.167,41.5 145.5,41.5C 145.5,33.8333 145.5,26.1667 145.5,18.5C 147.167,18.5 148.833,18.5 150.5,18.5C 150.5,26.1667 150.5,33.8333 150.5,41.5 Z"/></g>
<g><path style="opacity:1" fill="#e7191e" d="M 192.5,10.5 C 192.5,12.5 192.5,14.5 192.5,16.5C 188.167,16.5 183.833,16.5 179.5,16.5C 179.5,20.1667 179.5,23.8333 179.5,27.5C 183.5,27.5 187.5,27.5 191.5,27.5C 191.5,29.5 191.5,31.5 191.5,33.5C 187.167,33.5 182.833,33.5 178.5,33.5C 178.211,37.1064 178.544,40.6064 179.5,44C 183.821,44.499 188.154,44.6657 192.5,44.5C 192.5,46.5 192.5,48.5 192.5,50.5C 185.167,50.5 177.833,50.5 170.5,50.5C 170.5,37.1667 170.5,23.8333 170.5,10.5C 177.833,10.5 185.167,10.5 192.5,10.5 Z"/></g>
<g><path style="opacity:1" fill="#c50fdf" d="M 277.5,37.5 C 278.323,40.977 278.823,44.6437 279,48.5C 281.488,49.4122 283.155,48.4122 284,45.5C 284.249,46.624 284.749,47.624 285.5,48.5C 286.167,44.6875 286.834,41.0208 287.5,37.5C 287.5,42.1667 287.5,46.8333 287.5,51.5C 284.167,51.5 280.833,51.5 277.5,51.5C 277.5,46.8333 277.5,42.1667 277.5,37.5 Z"/></g>
<g><path style="opacity:1" fill="#080813" d="M 10.5,9.5 C 10.5,23.5 10.5,37.5 10.5,51.5C 18.5,51.5 26.5,51.5 34.5,51.5C 35.8184,48.4355 35.8184,45.2688 34.5,42C 30.5138,41.5012 26.5138,41.3345 22.5,41.5C 22.5,39.1667 22.5,36.8333 22.5,34.5C 26.3714,34.815 30.0381,34.4816 33.5,33.5C 33.5,31.1667 33.5,28.8333 33.5,26.5C 34.1635,28.0419 34.8302,29.7086 35.5,31.5C 39.5571,28.2585 40.5571,24.0918 38.5,19C 38.7074,17.0503 39.7074,15.8836 41.5,15.5C 41.3342,20.1785 41.5008,24.8452 42,29.5C 44.3726,31.1202 46.8726,32.4536 49.5,33.5C 49.5,35.5 49.5,37.5 49.5,39.5C 46.9275,40.2186 44.4275,41.2186 42,42.5C 41.502,45.4816 41.3354,48.4816 41.5,51.5C 44.8499,51.665 48.1832,51.4983 51.5,51C 52.056,50.6174 52.3893,50.1174 52.5,49.5C 55.366,48.2407 58.366,47.2407 61.5,46.5C 61.8282,41.1254 61.4948,35.7921 60.5,30.5C 57.57,29.5469 55.2367,27.8802 53.5,25.5C 53.2155,23.5853 53.5489,21.9187 54.5,20.5C 54.6219,24.8383 54.9553,25.1716 55.5,21.5C 57.1667,21.5 58.8333,21.5 60.5,21.5C 60.3893,22.1174 60.056,22.6174 59.5,23C 62.2114,24.2606 64.378,26.094 66,28.5C 66.6667,34.8333 66.6667,41.1667 66,47.5C 65.5348,48.9308 64.7014,50.0975 63.5,51C 55.6561,56.3649 47.1561,57.8649 38,55.5C 36.5589,56.2598 35.0589,56.9264 33.5,57.5C 25.2149,56.6959 16.8815,56.1959 8.5,56C 7.5842,55.7216 6.91753,55.2216 6.5,54.5C 7.5,54.5 8.5,54.5 9.5,54.5C 9.17056,39.324 9.50389,24.324 10.5,9.5 Z M 38.5,34.5 C 44.948,35.1341 45.1147,36.4674 39,38.5C 38.5,38.1667 38,37.8333 37.5,37.5C 38.1272,36.5832 38.4606,35.5832 38.5,34.5 Z"/></g>
<g><path style="opacity:1" fill="#105a9e" d="M 49.5,33.5 C 50.6291,35.6282 50.7958,37.9615 50,40.5C 47.5725,41.7814 45.0725,42.7814 42.5,43.5C 42.5,45.8333 42.5,48.1667 42.5,50.5C 45.9023,50.6576 49.2356,50.3242 52.5,49.5C 52.3893,50.1174 52.056,50.6174 51.5,51C 48.1832,51.4983 44.8499,51.665 41.5,51.5C 41.3354,48.4816 41.502,45.4816 42,42.5C 44.4275,41.2186 46.9275,40.2186 49.5,39.5C 49.5,37.5 49.5,35.5 49.5,33.5 Z"/></g>
<g><path style="opacity:1" fill="#001c49" d="M 33.5,33.5 C 30.0381,34.4816 26.3714,34.815 22.5,34.5C 22.5,36.8333 22.5,39.1667 22.5,41.5C 26.5138,41.3345 30.5138,41.5012 34.5,42C 35.8184,45.2688 35.8184,48.4355 34.5,51.5C 34.8064,48.6146 34.4731,45.9479 33.5,43.5C 29.5,43.5 25.5,43.5 21.5,43.5C 21.5,40.1667 21.5,36.8333 21.5,33.5C 25.5,33.5 29.5,33.5 33.5,33.5 Z"/></g>
<g><path style="opacity:1" fill="#001740" d="M 21.5,17.5 C 25.5,17.5 29.5,17.5 33.5,17.5C 30.0381,18.4816 26.3714,18.815 22.5,18.5C 22.5,20.8333 22.5,23.1667 22.5,25.5C 26.3714,25.185 30.0381,25.5184 33.5,26.5C 29.5,26.5 25.5,26.5 21.5,26.5C 21.5,23.5 21.5,20.5 21.5,17.5 Z"/></g>
<g><path style="opacity:1" fill="#400304" d="M 192.5,50.5 C 192.833,50.5 193.167,50.5 193.5,50.5C 189.893,51.824 185.893,52.4907 181.5,52.5C 177.319,52.4989 173.319,52.1656 169.5,51.5C 177.352,51.8254 185.018,51.492 192.5,50.5 Z"/></g>
</svg>
